<svg xmlns="http://www.w3.org/2000/svg" viewBox="0 0 24 24" aria-hidden="true">
  <path
    fill="#01902e"
    d="M12.75 2.5c.9.24 1.52 1.06 1.52 2v1.02c.96-.77 2.33-1.1 3.76-.86-.58 1.21-1.5 2.15-2.73 2.78.89.09 1.74.35 2.53.8-.97.92-2.06 1.48-3.28 1.68L12 8.35 9.44 9.92c-1.22-.2-2.31-.76-3.28-1.68.79-.45 1.64-.71 2.53-.8-1.23-.63-2.15-1.57-2.73-2.78 1.43-.24 2.8.09 3.76.86V4.5c0-.94.62-1.76 1.52-2Z"
  />
  <path
    fill="#f93208"
    d="M12 7.25c-4.88 0-8.75 3-8.75 7 0 4.14 3.73 7.25 8.75 7.25s8.75-3.11 8.75-7.25c0-4-3.87-7-8.75-7Z"
  />
  <path
    fill="#ff6f4d"
    fill-opacity=".35"
    d="M8.3 9.55c-1.94 1.04-3.05 2.74-3.05 4.86 0 3.18 2.96 5.75 6.75 5.99-2.74-1.46-4.25-3.69-4.25-6.39 0-1.59.52-3.12 1.55-4.46-.34-.02-.68-.01-1 0Z"
  />
  <circle cx="15.9" cy="11.6" r="1.2" fill="#ffd4c9" fill-opacity=".5" />
</svg>
